solid OpenSCAD_Model
  facet normal -1 0 0
    outer loop
      vertex 0 0 0
      vertex 0 39.76 6
      vertex 0 39.76 0
    endloop
  endfacet
  facet normal -1 -0 0
    outer loop
      vertex 0 39.76 6
      vertex 0 0 0
      vertex 0 0 6
    endloop
  endfacet
  facet normal -0 0 1
    outer loop
      vertex 7 11 6
      vertex 7.11 4.11 6
      vertex 32 11 6
    endloop
  endfacet
  facet normal -0 0 1
    outer loop
      vertex 3.18295 32.7968 6
      vertex 7 21 6
      vertex 5.03705 32.7968 6
    endloop
  endfacet
  facet normal 0 0 1
    outer loop
      vertex 7 11 6
      vertex 6.53705 5.87335 6
      vertex 7.11 4.11 6
    endloop
  endfacet
  facet normal 0 0 1
    outer loop
      vertex 1.68295 33.8866 6
      vertex 7 21 6
      vertex 3.18295 32.7968 6
    endloop
  endfacet
  facet normal 0 0 1
    outer loop
      vertex 7 11 6
      vertex 5.03705 6.96317 6
      vertex 6.53705 5.87335 6
    endloop
  endfacet
  facet normal 0 0 1
    outer loop
      vertex 7 21 6
      vertex 3.18295 6.96317 6
      vertex 7 11 6
    endloop
  endfacet
  facet normal 0 0 1
    outer loop
      vertex 7 11 6
      vertex 3.18295 6.96317 6
      vertex 5.03705 6.96317 6
    endloop
  endfacet
  facet normal 0 0 1
    outer loop
      vertex 1.68295 5.87335 6
      vertex 7 21 6
      vertex 1.68295 33.8866 6
    endloop
  endfacet
  facet normal 0 0 1
    outer loop
      vertex 7 21 6
      vertex 1.68295 5.87335 6
      vertex 3.18295 6.96317 6
    endloop
  endfacet
  facet normal 0 0 1
    outer loop
      vertex 1.11 35.65 6
      vertex 1.68295 5.87335 6
      vertex 1.68295 33.8866 6
    endloop
  endfacet
  facet normal 0 0 1
    outer loop
      vertex 1.68295 5.87335 6
      vertex 1.11 35.65 6
      vertex 1.11 4.11 6
    endloop
  endfacet
  facet normal -0 0 1
    outer loop
      vertex 26.4619 28.2781 6
      vertex 32 21 6
      vertex 27.2 30.06 6
    endloop
  endfacet
  facet normal -0 0 1
    outer loop
      vertex 24.68 27.54 6
      vertex 32 21 6
      vertex 26.4619 28.2781 6
    endloop
  endfacet
  facet normal 0 0 1
    outer loop
      vertex 14.62 27.54 6
      vertex 24.68 27.54 6
      vertex 22.8981 28.2781 6
    endloop
  endfacet
  facet normal -0 0 1
    outer loop
      vertex 17.14 30.06 6
      vertex 22.8981 28.2781 6
      vertex 22.16 30.06 6
    endloop
  endfacet
  facet normal 0 0 1
    outer loop
      vertex 16.4019 28.2781 6
      vertex 22.8981 28.2781 6
      vertex 17.14 30.06 6
    endloop
  endfacet
  facet normal 0 0 1
    outer loop
      vertex 14.62 27.54 6
      vertex 22.8981 28.2781 6
      vertex 16.4019 28.2781 6
    endloop
  endfacet
  facet normal 0 0 1
    outer loop
      vertex 24.68 27.54 6
      vertex 14.62 27.54 6
      vertex 32 21 6
    endloop
  endfacet
  facet normal 0 0 1
    outer loop
      vertex 12.8381 31.8419 6
      vertex 6.53705 33.8866 6
      vertex 12.1 30.06 6
    endloop
  endfacet
  facet normal 0 0 1
    outer loop
      vertex 14.62 27.54 6
      vertex 7 21 6
      vertex 32 21 6
    endloop
  endfacet
  facet normal 0 0 1
    outer loop
      vertex 12.8381 28.2781 6
      vertex 7 21 6
      vertex 14.62 27.54 6
    endloop
  endfacet
  facet normal -0 0 1
    outer loop
      vertex 5.03705 32.7968 6
      vertex 12.1 30.06 6
      vertex 6.53705 33.8866 6
    endloop
  endfacet
  facet normal 0 0 1
    outer loop
      vertex 12.1 30.06 6
      vertex 5.03705 32.7968 6
      vertex 7 21 6
    endloop
  endfacet
  facet normal 0 0 1
    outer loop
      vertex 12.1 30.06 6
      vertex 7 21 6
      vertex 12.8381 28.2781 6
    endloop
  endfacet
  facet normal 0 0 1
    outer loop
      vertex 58.76 0 6
      vertex 38.077 5.87335 6
      vertex 38.65 4.11 6
    endloop
  endfacet
  facet normal 0 0 1
    outer loop
      vertex 32 21 6
      vertex 39.2205 27.9152 6
      vertex 37.7279 29.1055 6
    endloop
  endfacet
  facet normal 0 0 1
    outer loop
      vertex 37.7279 31.0145 6
      vertex 34.7229 32.7968 6
      vertex 37.7279 29.1055 6
    endloop
  endfacet
  facet normal 0 -0 1
    outer loop
      vertex 36.577 6.96317 6
      vertex 39.2205 27.9152 6
      vertex 32 21 6
    endloop
  endfacet
  facet normal -0 0 1
    outer loop
      vertex 27.2 30.06 6
      vertex 37.7279 29.1055 6
      vertex 34.7229 32.7968 6
    endloop
  endfacet
  facet normal 0 0 1
    outer loop
      vertex 39.2205 27.9152 6
      vertex 36.577 6.96317 6
      vertex 38.077 5.87335 6
    endloop
  endfacet
  facet normal 0 0 1
    outer loop
      vertex 27.2 30.06 6
      vertex 34.7229 32.7968 6
      vertex 33.2229 33.8866 6
    endloop
  endfacet
  facet normal -0 0 1
    outer loop
      vertex 32 11 6
      vertex 36.577 6.96317 6
      vertex 32 21 6
    endloop
  endfacet
  facet normal 0 0 1
    outer loop
      vertex 26.4619 31.8419 6
      vertex 33.2229 33.8866 6
      vertex 32.65 35.65 6
    endloop
  endfacet
  facet normal 0 0 1
    outer loop
      vertex 36.577 6.96317 6
      vertex 32 11 6
      vertex 34.7229 6.96317 6
    endloop
  endfacet
  facet normal 0 0 1
    outer loop
      vertex 58.76 39.76 6
      vertex 57.46 30.06 6
      vertex 58.76 0 6
    endloop
  endfacet
  facet normal 0 0 1
    outer loop
      vertex 58.76 39.76 6
      vertex 56.6317 31.78 6
      vertex 57.46 30.06 6
    endloop
  endfacet
  facet normal 0 0 1
    outer loop
      vertex 58.76 39.76 6
      vertex 54.7705 32.2048 6
      vertex 56.6317 31.78 6
    endloop
  endfacet
  facet normal -0 0 1
    outer loop
      vertex 38.077 37.4134 6
      vertex 54.7705 32.2048 6
      vertex 58.76 39.76 6
    endloop
  endfacet
  facet normal 0 0 1
    outer loop
      vertex 54.7705 32.2048 6
      vertex 38.65 35.65 6
      vertex 39.2205 32.2048 6
    endloop
  endfacet
  facet normal 0 0 1
    outer loop
      vertex 54.7705 32.2048 6
      vertex 38.077 37.4134 6
      vertex 38.65 35.65 6
    endloop
  endfacet
  facet normal 0 0 1
    outer loop
      vertex 58.76 39.76 6
      vertex 36.577 38.5032 6
      vertex 38.077 37.4134 6
    endloop
  endfacet
  facet normal 0 0 1
    outer loop
      vertex 58.76 39.76 6
      vertex 34.7229 38.5032 6
      vertex 36.577 38.5032 6
    endloop
  endfacet
  facet normal 0 0 1
    outer loop
      vertex 34.7229 6.96317 6
      vertex 32 11 6
      vertex 33.2229 5.87335 6
    endloop
  endfacet
  facet normal 0 0 1
    outer loop
      vertex 37.7279 29.1055 6
      vertex 27.2 30.06 6
      vertex 32 21 6
    endloop
  endfacet
  facet normal 0 0 1
    outer loop
      vertex 24.68 32.58 6
      vertex 32.65 35.65 6
      vertex 33.2229 37.4134 6
    endloop
  endfacet
  facet normal 0 0 1
    outer loop
      vertex 33.2229 33.8866 6
      vertex 26.4619 31.8419 6
      vertex 27.2 30.06 6
    endloop
  endfacet
  facet normal 0 0 1
    outer loop
      vertex 32.65 35.65 6
      vertex 24.68 32.58 6
      vertex 26.4619 31.8419 6
    endloop
  endfacet
  facet normal 0 0 1
    outer loop
      vertex 6.53705 37.4134 6
      vertex 33.2229 37.4134 6
      vertex 34.7229 38.5032 6
    endloop
  endfacet
  facet normal 0 0 1
    outer loop
      vertex 33.2229 37.4134 6
      vertex 6.53705 37.4134 6
      vertex 24.68 32.58 6
    endloop
  endfacet
  facet normal 0 0 1
    outer loop
      vertex 22.8981 31.8419 6
      vertex 17.14 30.06 6
      vertex 22.16 30.06 6
    endloop
  endfacet
  facet normal 0 0 1
    outer loop
      vertex 24.68 32.58 6
      vertex 14.62 32.58 6
      vertex 22.8981 31.8419 6
    endloop
  endfacet
  facet normal 0 0 1
    outer loop
      vertex 22.8981 31.8419 6
      vertex 16.4019 31.8419 6
      vertex 17.14 30.06 6
    endloop
  endfacet
  facet normal 0 0 1
    outer loop
      vertex 22.8981 31.8419 6
      vertex 14.62 32.58 6
      vertex 16.4019 31.8419 6
    endloop
  endfacet
  facet normal -0 0 1
    outer loop
      vertex 6.53705 33.8866 6
      vertex 12.8381 31.8419 6
      vertex 7.11 35.65 6
    endloop
  endfacet
  facet normal 0 0 1
    outer loop
      vertex 14.62 32.58 6
      vertex 7.11 35.65 6
      vertex 12.8381 31.8419 6
    endloop
  endfacet
  facet normal 0 0 1
    outer loop
      vertex 24.68 32.58 6
      vertex 6.53705 37.4134 6
      vertex 14.62 32.58 6
    endloop
  endfacet
  facet normal 0 0 1
    outer loop
      vertex 14.62 32.58 6
      vertex 6.53705 37.4134 6
      vertex 7.11 35.65 6
    endloop
  endfacet
  facet normal -0 0 1
    outer loop
      vertex 0 39.76 6
      vertex 34.7229 38.5032 6
      vertex 58.76 39.76 6
    endloop
  endfacet
  facet normal 0 0 1
    outer loop
      vertex 34.7229 38.5032 6
      vertex 5.03705 38.5032 6
      vertex 6.53705 37.4134 6
    endloop
  endfacet
  facet normal 0 0 1
    outer loop
      vertex 34.7229 38.5032 6
      vertex 0 39.76 6
      vertex 5.03705 38.5032 6
    endloop
  endfacet
  facet normal 0 0 1
    outer loop
      vertex 1.11 35.65 6
      vertex 0 39.76 6
      vertex 1.11 4.11 6
    endloop
  endfacet
  facet normal 0 0 1
    outer loop
      vertex 1.68295 37.4134 6
      vertex 0 39.76 6
      vertex 1.11 35.65 6
    endloop
  endfacet
  facet normal 0 0 1
    outer loop
      vertex 3.18295 38.5032 6
      vertex 0 39.76 6
      vertex 1.68295 37.4134 6
    endloop
  endfacet
  facet normal 0 0 1
    outer loop
      vertex 5.03705 38.5032 6
      vertex 0 39.76 6
      vertex 3.18295 38.5032 6
    endloop
  endfacet
  facet normal -0 0 1
    outer loop
      vertex 56.6317 28.34 6
      vertex 58.76 0 6
      vertex 57.46 30.06 6
    endloop
  endfacet
  facet normal -0 0 1
    outer loop
      vertex 54.7705 27.9152 6
      vertex 58.76 0 6
      vertex 56.6317 28.34 6
    endloop
  endfacet
  facet normal 0 0 1
    outer loop
      vertex 38.077 5.87335 6
      vertex 54.7705 27.9152 6
      vertex 39.2205 27.9152 6
    endloop
  endfacet
  facet normal -0 0 1
    outer loop
      vertex 38.077 5.87335 6
      vertex 58.76 0 6
      vertex 54.7705 27.9152 6
    endloop
  endfacet
  facet normal -0 0 1
    outer loop
      vertex 38.077 2.34664 6
      vertex 58.76 0 6
      vertex 38.65 4.11 6
    endloop
  endfacet
  facet normal -0 0 1
    outer loop
      vertex 36.577 1.25683 6
      vertex 58.76 0 6
      vertex 38.077 2.34664 6
    endloop
  endfacet
  facet normal -0 0 1
    outer loop
      vertex 34.7229 1.25683 6
      vertex 58.76 0 6
      vertex 36.577 1.25683 6
    endloop
  endfacet
  facet normal 0 0 1
    outer loop
      vertex 33.2229 5.87335 6
      vertex 32 11 6
      vertex 32.65 4.11 6
    endloop
  endfacet
  facet normal 0 0 1
    outer loop
      vertex 7.11 4.11 6
      vertex 32.65 4.11 6
      vertex 32 11 6
    endloop
  endfacet
  facet normal -0 0 1
    outer loop
      vertex 7.11 4.11 6
      vertex 33.2229 2.34664 6
      vertex 32.65 4.11 6
    endloop
  endfacet
  facet normal 0 0 1
    outer loop
      vertex 6.53705 2.34664 6
      vertex 33.2229 2.34664 6
      vertex 7.11 4.11 6
    endloop
  endfacet
  facet normal 0 0 1
    outer loop
      vertex 33.2229 2.34664 6
      vertex 6.53705 2.34664 6
      vertex 34.7229 1.25683 6
    endloop
  endfacet
  facet normal 0 0 1
    outer loop
      vertex 5.03705 1.25683 6
      vertex 34.7229 1.25683 6
      vertex 6.53705 2.34664 6
    endloop
  endfacet
  facet normal 0 0 1
    outer loop
      vertex 0 0 6
      vertex 34.7229 1.25683 6
      vertex 5.03705 1.25683 6
    endloop
  endfacet
  facet normal 0 0 1
    outer loop
      vertex 0 0 6
      vertex 5.03705 1.25683 6
      vertex 3.18295 1.25683 6
    endloop
  endfacet
  facet normal 0 0 1
    outer loop
      vertex 34.7229 1.25683 6
      vertex 0 0 6
      vertex 58.76 0 6
    endloop
  endfacet
  facet normal 0 0 1
    outer loop
      vertex 1.68295 2.34664 6
      vertex 0 0 6
      vertex 3.18295 1.25683 6
    endloop
  endfacet
  facet normal 0 0 1
    outer loop
      vertex 1.11 4.11 6
      vertex 0 0 6
      vertex 1.68295 2.34664 6
    endloop
  endfacet
  facet normal 0 0 1
    outer loop
      vertex 0 0 6
      vertex 1.11 4.11 6
      vertex 0 39.76 6
    endloop
  endfacet
  facet normal -0 0 1
    outer loop
      vertex 38.077 33.8866 6
      vertex 39.2205 32.2048 6
      vertex 38.65 35.65 6
    endloop
  endfacet
  facet normal -0 0 1
    outer loop
      vertex 36.577 32.7968 6
      vertex 39.2205 32.2048 6
      vertex 38.077 33.8866 6
    endloop
  endfacet
  facet normal -0 0 1
    outer loop
      vertex 34.7229 32.7968 6
      vertex 37.7279 31.0145 6
      vertex 36.577 32.7968 6
    endloop
  endfacet
  facet normal 0 0 1
    outer loop
      vertex 39.2205 32.2048 6
      vertex 36.577 32.7968 6
      vertex 37.7279 31.0145 6
    endloop
  endfacet
  facet normal 1 -0 0
    outer loop
      vertex 58.76 0 6
      vertex 58.76 39.76 0
      vertex 58.76 39.76 6
    endloop
  endfacet
  facet normal 1 0 0
    outer loop
      vertex 58.76 39.76 0
      vertex 58.76 0 6
      vertex 58.76 0 0
    endloop
  endfacet
  facet normal 0 1 -0
    outer loop
      vertex 58.76 39.76 0
      vertex 0 39.76 6
      vertex 58.76 39.76 6
    endloop
  endfacet
  facet normal 0 1 0
    outer loop
      vertex 0 39.76 6
      vertex 58.76 39.76 0
      vertex 0 39.76 0
    endloop
  endfacet
  facet normal 0 0 -1
    outer loop
      vertex 32 21 0
      vertex 26.4619 28.2781 0
      vertex 27.2 30.06 0
    endloop
  endfacet
  facet normal 0 0 -1
    outer loop
      vertex 32 21 0
      vertex 24.68 27.54 0
      vertex 26.4619 28.2781 0
    endloop
  endfacet
  facet normal 0 0 -1
    outer loop
      vertex 14.62 27.54 0
      vertex 24.68 27.54 0
      vertex 32 21 0
    endloop
  endfacet
  facet normal 0 0 -1
    outer loop
      vertex 22.8981 28.2781 0
      vertex 17.14 30.06 0
      vertex 22.16 30.06 0
    endloop
  endfacet
  facet normal 0 0 -1
    outer loop
      vertex 24.68 27.54 0
      vertex 14.62 27.54 0
      vertex 22.8981 28.2781 0
    endloop
  endfacet
  facet normal 0 0 -1
    outer loop
      vertex 22.8981 28.2781 0
      vertex 16.4019 28.2781 0
      vertex 17.14 30.06 0
    endloop
  endfacet
  facet normal -0 0 -1
    outer loop
      vertex 22.8981 28.2781 0
      vertex 14.62 27.54 0
      vertex 16.4019 28.2781 0
    endloop
  endfacet
  facet normal 0 0 -1
    outer loop
      vertex 7 21 0
      vertex 12.1 30.06 0
      vertex 12.8381 28.2781 0
    endloop
  endfacet
  facet normal 0 0 -1
    outer loop
      vertex 7 21 0
      vertex 14.62 27.54 0
      vertex 32 21 0
    endloop
  endfacet
  facet normal 0 0 -1
    outer loop
      vertex 7 21 0
      vertex 12.8381 28.2781 0
      vertex 14.62 27.54 0
    endloop
  endfacet
  facet normal -0 0 -1
    outer loop
      vertex 12.1 30.06 0
      vertex 7 21 0
      vertex 5.03705 32.7968 0
    endloop
  endfacet
  facet normal 0 0 -1
    outer loop
      vertex 3.18295 6.96317 0
      vertex 7 11 0
      vertex 5.03705 6.96317 0
    endloop
  endfacet
  facet normal 0 0 -1
    outer loop
      vertex 12.1 30.06 0
      vertex 6.53705 33.8866 0
      vertex 7.11 35.65 0
    endloop
  endfacet
  facet normal -0 0 -1
    outer loop
      vertex 7 11 0
      vertex 3.18295 6.96317 0
      vertex 7 21 0
    endloop
  endfacet
  facet normal 0 0 -1
    outer loop
      vertex 12.1 30.06 0
      vertex 5.03705 32.7968 0
      vertex 6.53705 33.8866 0
    endloop
  endfacet
  facet normal 0 0 -1
    outer loop
      vertex 1.68295 5.87335 0
      vertex 7 21 0
      vertex 3.18295 6.96317 0
    endloop
  endfacet
  facet normal 0 0 -1
    outer loop
      vertex 7 21 0
      vertex 3.18295 32.7968 0
      vertex 5.03705 32.7968 0
    endloop
  endfacet
  facet normal 0 0 -1
    outer loop
      vertex 1.68295 33.8866 0
      vertex 7 21 0
      vertex 1.68295 5.87335 0
    endloop
  endfacet
  facet normal 0 0 -1
    outer loop
      vertex 7 21 0
      vertex 1.68295 33.8866 0
      vertex 3.18295 32.7968 0
    endloop
  endfacet
  facet normal 0 0 -1
    outer loop
      vertex 1.11 4.11 0
      vertex 1.68295 33.8866 0
      vertex 1.68295 5.87335 0
    endloop
  endfacet
  facet normal -0 0 -1
    outer loop
      vertex 1.68295 33.8866 0
      vertex 1.11 4.11 0
      vertex 1.11 35.65 0
    endloop
  endfacet
  facet normal 0 0 -1
    outer loop
      vertex 7.11 4.11 0
      vertex 7 11 0
      vertex 32 11 0
    endloop
  endfacet
  facet normal 0 0 -1
    outer loop
      vertex 5.03705 6.96317 0
      vertex 7 11 0
      vertex 6.53705 5.87335 0
    endloop
  endfacet
  facet normal 0 0 -1
    outer loop
      vertex 6.53705 5.87335 0
      vertex 7 11 0
      vertex 7.11 4.11 0
    endloop
  endfacet
  facet normal 0 0 -1
    outer loop
      vertex 39.2205 32.2048 0
      vertex 38.077 33.8866 0
      vertex 38.65 35.65 0
    endloop
  endfacet
  facet normal 0 0 -1
    outer loop
      vertex 36.577 32.7968 0
      vertex 39.2205 32.2048 0
      vertex 37.7279 31.0145 0
    endloop
  endfacet
  facet normal 0 0 -1
    outer loop
      vertex 39.2205 32.2048 0
      vertex 36.577 32.7968 0
      vertex 38.077 33.8866 0
    endloop
  endfacet
  facet normal 0 0 -1
    outer loop
      vertex 37.7279 29.1055 0
      vertex 36.577 32.7968 0
      vertex 37.7279 31.0145 0
    endloop
  endfacet
  facet normal 0 0 -1
    outer loop
      vertex 32 11 0
      vertex 36.577 6.96317 0
      vertex 34.7229 6.96317 0
    endloop
  endfacet
  facet normal 0 0 -1
    outer loop
      vertex 27.2 30.06 0
      vertex 37.7279 29.1055 0
      vertex 32 21 0
    endloop
  endfacet
  facet normal 0 0 -1
    outer loop
      vertex 32 11 0
      vertex 34.7229 6.96317 0
      vertex 33.2229 5.87335 0
    endloop
  endfacet
  facet normal 0 0 -1
    outer loop
      vertex 37.7279 29.1055 0
      vertex 34.7229 32.7968 0
      vertex 36.577 32.7968 0
    endloop
  endfacet
  facet normal 0 0 -1
    outer loop
      vertex 32 11 0
      vertex 33.2229 5.87335 0
      vertex 32.65 4.11 0
    endloop
  endfacet
  facet normal 0 0 -1
    outer loop
      vertex 37.7279 29.1055 0
      vertex 27.2 30.06 0
      vertex 34.7229 32.7968 0
    endloop
  endfacet
  facet normal 0 0 -1
    outer loop
      vertex 58.76 0 0
      vertex 57.46 30.06 0
      vertex 58.76 39.76 0
    endloop
  endfacet
  facet normal 0 0 -1
    outer loop
      vertex 58.76 0 0
      vertex 56.6317 28.34 0
      vertex 57.46 30.06 0
    endloop
  endfacet
  facet normal 0 0 -1
    outer loop
      vertex 58.76 0 0
      vertex 54.7705 27.9152 0
      vertex 56.6317 28.34 0
    endloop
  endfacet
  facet normal 0 0 -1
    outer loop
      vertex 38.077 5.87335 0
      vertex 54.7705 27.9152 0
      vertex 58.76 0 0
    endloop
  endfacet
  facet normal 0 0 -1
    outer loop
      vertex 38.077 5.87335 0
      vertex 58.76 0 0
      vertex 38.65 4.11 0
    endloop
  endfacet
  facet normal 0 0 -1
    outer loop
      vertex 58.76 0 0
      vertex 38.077 2.34664 0
      vertex 38.65 4.11 0
    endloop
  endfacet
  facet normal 0 0 -1
    outer loop
      vertex 58.76 0 0
      vertex 36.577 1.25683 0
      vertex 38.077 2.34664 0
    endloop
  endfacet
  facet normal 0 0 -1
    outer loop
      vertex 58.76 0 0
      vertex 34.7229 1.25683 0
      vertex 36.577 1.25683 0
    endloop
  endfacet
  facet normal 0 0 -1
    outer loop
      vertex 36.577 6.96317 0
      vertex 32 11 0
      vertex 32 21 0
    endloop
  endfacet
  facet normal 0 0 -1
    outer loop
      vertex 32.65 4.11 0
      vertex 7.11 4.11 0
      vertex 32 11 0
    endloop
  endfacet
  facet normal 0 0 -1
    outer loop
      vertex 33.2229 2.34664 0
      vertex 7.11 4.11 0
      vertex 32.65 4.11 0
    endloop
  endfacet
  facet normal 0 0 -1
    outer loop
      vertex 6.53705 2.34664 0
      vertex 33.2229 2.34664 0
      vertex 34.7229 1.25683 0
    endloop
  endfacet
  facet normal 0 0 -1
    outer loop
      vertex 33.2229 2.34664 0
      vertex 6.53705 2.34664 0
      vertex 7.11 4.11 0
    endloop
  endfacet
  facet normal 0 0 -1
    outer loop
      vertex 0 0 0
      vertex 34.7229 1.25683 0
      vertex 58.76 0 0
    endloop
  endfacet
  facet normal 0 0 -1
    outer loop
      vertex 34.7229 1.25683 0
      vertex 5.03705 1.25683 0
      vertex 6.53705 2.34664 0
    endloop
  endfacet
  facet normal -0 0 -1
    outer loop
      vertex 34.7229 1.25683 0
      vertex 0 0 0
      vertex 5.03705 1.25683 0
    endloop
  endfacet
  facet normal -0 0 -1
    outer loop
      vertex 1.11 4.11 0
      vertex 0 0 0
      vertex 1.11 35.65 0
    endloop
  endfacet
  facet normal -0 0 -1
    outer loop
      vertex 1.68295 2.34664 0
      vertex 0 0 0
      vertex 1.11 4.11 0
    endloop
  endfacet
  facet normal -0 0 -1
    outer loop
      vertex 3.18295 1.25683 0
      vertex 0 0 0
      vertex 1.68295 2.34664 0
    endloop
  endfacet
  facet normal -0 0 -1
    outer loop
      vertex 5.03705 1.25683 0
      vertex 0 0 0
      vertex 3.18295 1.25683 0
    endloop
  endfacet
  facet normal 0 0 -1
    outer loop
      vertex 56.6317 31.78 0
      vertex 58.76 39.76 0
      vertex 57.46 30.06 0
    endloop
  endfacet
  facet normal 0 0 -1
    outer loop
      vertex 54.7705 32.2048 0
      vertex 58.76 39.76 0
      vertex 56.6317 31.78 0
    endloop
  endfacet
  facet normal 0 0 -1
    outer loop
      vertex 38.65 35.65 0
      vertex 54.7705 32.2048 0
      vertex 39.2205 32.2048 0
    endloop
  endfacet
  facet normal 0 0 -1
    outer loop
      vertex 38.077 37.4134 0
      vertex 54.7705 32.2048 0
      vertex 38.65 35.65 0
    endloop
  endfacet
  facet normal 0 0 -1
    outer loop
      vertex 54.7705 32.2048 0
      vertex 38.077 37.4134 0
      vertex 58.76 39.76 0
    endloop
  endfacet
  facet normal 0 0 -1
    outer loop
      vertex 36.577 38.5032 0
      vertex 58.76 39.76 0
      vertex 38.077 37.4134 0
    endloop
  endfacet
  facet normal 0 0 -1
    outer loop
      vertex 34.7229 38.5032 0
      vertex 58.76 39.76 0
      vertex 36.577 38.5032 0
    endloop
  endfacet
  facet normal -0 0 -1
    outer loop
      vertex 34.7229 32.7968 0
      vertex 27.2 30.06 0
      vertex 33.2229 33.8866 0
    endloop
  endfacet
  facet normal 0 0 -1
    outer loop
      vertex 26.4619 31.8419 0
      vertex 33.2229 33.8866 0
      vertex 27.2 30.06 0
    endloop
  endfacet
  facet normal -0 0 -1
    outer loop
      vertex 33.2229 33.8866 0
      vertex 26.4619 31.8419 0
      vertex 32.65 35.65 0
    endloop
  endfacet
  facet normal 0 0 -1
    outer loop
      vertex 24.68 32.58 0
      vertex 32.65 35.65 0
      vertex 26.4619 31.8419 0
    endloop
  endfacet
  facet normal -0 0 -1
    outer loop
      vertex 32.65 35.65 0
      vertex 24.68 32.58 0
      vertex 33.2229 37.4134 0
    endloop
  endfacet
  facet normal 0 0 -1
    outer loop
      vertex 6.53705 37.4134 0
      vertex 33.2229 37.4134 0
      vertex 24.68 32.58 0
    endloop
  endfacet
  facet normal 0 0 -1
    outer loop
      vertex 14.62 32.58 0
      vertex 24.68 32.58 0
      vertex 22.8981 31.8419 0
    endloop
  endfacet
  facet normal 0 0 -1
    outer loop
      vertex 17.14 30.06 0
      vertex 22.8981 31.8419 0
      vertex 22.16 30.06 0
    endloop
  endfacet
  facet normal 0 0 -1
    outer loop
      vertex 16.4019 31.8419 0
      vertex 22.8981 31.8419 0
      vertex 17.14 30.06 0
    endloop
  endfacet
  facet normal 0 0 -1
    outer loop
      vertex 14.62 32.58 0
      vertex 22.8981 31.8419 0
      vertex 16.4019 31.8419 0
    endloop
  endfacet
  facet normal 0 0 -1
    outer loop
      vertex 6.53705 37.4134 0
      vertex 24.68 32.58 0
      vertex 14.62 32.58 0
    endloop
  endfacet
  facet normal 0 0 -1
    outer loop
      vertex 7.11 35.65 0
      vertex 12.8381 31.8419 0
      vertex 12.1 30.06 0
    endloop
  endfacet
  facet normal 0 0 -1
    outer loop
      vertex 7.11 35.65 0
      vertex 14.62 32.58 0
      vertex 12.8381 31.8419 0
    endloop
  endfacet
  facet normal 0 0 -1
    outer loop
      vertex 6.53705 37.4134 0
      vertex 14.62 32.58 0
      vertex 7.11 35.65 0
    endloop
  endfacet
  facet normal 0 0 -1
    outer loop
      vertex 33.2229 37.4134 0
      vertex 6.53705 37.4134 0
      vertex 34.7229 38.5032 0
    endloop
  endfacet
  facet normal 0 0 -1
    outer loop
      vertex 5.03705 38.5032 0
      vertex 34.7229 38.5032 0
      vertex 6.53705 37.4134 0
    endloop
  endfacet
  facet normal 0 0 -1
    outer loop
      vertex 0 39.76 0
      vertex 34.7229 38.5032 0
      vertex 5.03705 38.5032 0
    endloop
  endfacet
  facet normal 0 0 -1
    outer loop
      vertex 0 39.76 0
      vertex 5.03705 38.5032 0
      vertex 3.18295 38.5032 0
    endloop
  endfacet
  facet normal 0 0 -1
    outer loop
      vertex 34.7229 38.5032 0
      vertex 0 39.76 0
      vertex 58.76 39.76 0
    endloop
  endfacet
  facet normal 0 0 -1
    outer loop
      vertex 1.68295 37.4134 0
      vertex 0 39.76 0
      vertex 3.18295 38.5032 0
    endloop
  endfacet
  facet normal 0 0 -1
    outer loop
      vertex 1.11 35.65 0
      vertex 0 39.76 0
      vertex 1.68295 37.4134 0
    endloop
  endfacet
  facet normal 0 0 -1
    outer loop
      vertex 0 39.76 0
      vertex 1.11 35.65 0
      vertex 0 0 0
    endloop
  endfacet
  facet normal -0 0 -1
    outer loop
      vertex 54.7705 27.9152 0
      vertex 38.077 5.87335 0
      vertex 39.2205 27.9152 0
    endloop
  endfacet
  facet normal 0 0 -1
    outer loop
      vertex 36.577 6.96317 0
      vertex 39.2205 27.9152 0
      vertex 38.077 5.87335 0
    endloop
  endfacet
  facet normal -0 0 -1
    outer loop
      vertex 39.2205 27.9152 0
      vertex 32 21 0
      vertex 37.7279 29.1055 0
    endloop
  endfacet
  facet normal 0 0 -1
    outer loop
      vertex 32 21 0
      vertex 39.2205 27.9152 0
      vertex 36.577 6.96317 0
    endloop
  endfacet
  facet normal 0 -1 0
    outer loop
      vertex 0 0 0
      vertex 58.76 0 6
      vertex 0 0 6
    endloop
  endfacet
  facet normal 0 -1 -0
    outer loop
      vertex 58.76 0 6
      vertex 0 0 0
      vertex 58.76 0 0
    endloop
  endfacet
  facet normal -0.951056 -0.309017 0
    outer loop
      vertex 7.11 4.11 0
      vertex 6.53705 5.87335 6
      vertex 6.53705 5.87335 0
    endloop
  endfacet
  facet normal -0.951056 -0.309017 0
    outer loop
      vertex 6.53705 5.87335 6
      vertex 7.11 4.11 0
      vertex 7.11 4.11 6
    endloop
  endfacet
  facet normal 0 -1 0
    outer loop
      vertex 3.18295 6.96317 0
      vertex 5.03705 6.96317 6
      vertex 3.18295 6.96317 6
    endloop
  endfacet
  facet normal 0 -1 -0
    outer loop
      vertex 5.03705 6.96317 6
      vertex 3.18295 6.96317 0
      vertex 5.03705 6.96317 0
    endloop
  endfacet
  facet normal -0.587785 -0.809017 0
    outer loop
      vertex 5.03705 6.96317 0
      vertex 6.53705 5.87335 6
      vertex 5.03705 6.96317 6
    endloop
  endfacet
  facet normal -0.587785 -0.809017 -0
    outer loop
      vertex 6.53705 5.87335 6
      vertex 5.03705 6.96317 0
      vertex 6.53705 5.87335 0
    endloop
  endfacet
  facet normal 0.587785 -0.809017 0
    outer loop
      vertex 1.68295 5.87335 0
      vertex 3.18295 6.96317 6
      vertex 1.68295 5.87335 6
    endloop
  endfacet
  facet normal 0.587785 -0.809017 0
    outer loop
      vertex 3.18295 6.96317 6
      vertex 1.68295 5.87335 0
      vertex 3.18295 6.96317 0
    endloop
  endfacet
  facet normal 0.951057 -0.309017 0
    outer loop
      vertex 1.11 4.11 6
      vertex 1.68295 5.87335 0
      vertex 1.68295 5.87335 6
    endloop
  endfacet
  facet normal 0.951057 -0.309017 0
    outer loop
      vertex 1.68295 5.87335 0
      vertex 1.11 4.11 6
      vertex 1.11 4.11 0
    endloop
  endfacet
  facet normal 0.587785 0.809017 -0
    outer loop
      vertex 3.18295 1.25683 0
      vertex 1.68295 2.34664 6
      vertex 3.18295 1.25683 6
    endloop
  endfacet
  facet normal 0.587785 0.809017 0
    outer loop
      vertex 1.68295 2.34664 6
      vertex 3.18295 1.25683 0
      vertex 1.68295 2.34664 0
    endloop
  endfacet
  facet normal -0.587785 0.809017 0
    outer loop
      vertex 6.53705 2.34664 0
      vertex 5.03705 1.25683 6
      vertex 6.53705 2.34664 6
    endloop
  endfacet
  facet normal -0.587785 0.809017 0
    outer loop
      vertex 5.03705 1.25683 6
      vertex 6.53705 2.34664 0
      vertex 5.03705 1.25683 0
    endloop
  endfacet
  facet normal -0.951056 0.309017 0
    outer loop
      vertex 6.53705 2.34664 0
      vertex 7.11 4.11 6
      vertex 7.11 4.11 0
    endloop
  endfacet
  facet normal -0.951056 0.309017 0
    outer loop
      vertex 7.11 4.11 6
      vertex 6.53705 2.34664 0
      vertex 6.53705 2.34664 6
    endloop
  endfacet
  facet normal 0.951057 0.309017 0
    outer loop
      vertex 1.68295 2.34664 6
      vertex 1.11 4.11 0
      vertex 1.11 4.11 6
    endloop
  endfacet
  facet normal 0.951057 0.309017 0
    outer loop
      vertex 1.11 4.11 0
      vertex 1.68295 2.34664 6
      vertex 1.68295 2.34664 0
    endloop
  endfacet
  facet normal 0 1 -0
    outer loop
      vertex 5.03705 1.25683 0
      vertex 3.18295 1.25683 6
      vertex 5.03705 1.25683 6
    endloop
  endfacet
  facet normal 0 1 0
    outer loop
      vertex 3.18295 1.25683 6
      vertex 5.03705 1.25683 0
      vertex 3.18295 1.25683 0
    endloop
  endfacet
  facet normal -0.951056 -0.309018 0
    outer loop
      vertex 7.11 35.65 0
      vertex 6.53705 37.4134 6
      vertex 6.53705 37.4134 0
    endloop
  endfacet
  facet normal -0.951056 -0.309018 0
    outer loop
      vertex 6.53705 37.4134 6
      vertex 7.11 35.65 0
      vertex 7.11 35.65 6
    endloop
  endfacet
  facet normal 0 -1 0
    outer loop
      vertex 3.18295 38.5032 0
      vertex 5.03705 38.5032 6
      vertex 3.18295 38.5032 6
    endloop
  endfacet
  facet normal 0 -1 -0
    outer loop
      vertex 5.03705 38.5032 6
      vertex 3.18295 38.5032 0
      vertex 5.03705 38.5032 0
    endloop
  endfacet
  facet normal -0.587786 -0.809016 0
    outer loop
      vertex 5.03705 38.5032 0
      vertex 6.53705 37.4134 6
      vertex 5.03705 38.5032 6
    endloop
  endfacet
  facet normal -0.587786 -0.809016 -0
    outer loop
      vertex 6.53705 37.4134 6
      vertex 5.03705 38.5032 0
      vertex 6.53705 37.4134 0
    endloop
  endfacet
  facet normal 0.587786 -0.809016 0
    outer loop
      vertex 1.68295 37.4134 0
      vertex 3.18295 38.5032 6
      vertex 1.68295 37.4134 6
    endloop
  endfacet
  facet normal 0.587786 -0.809016 0
    outer loop
      vertex 3.18295 38.5032 6
      vertex 1.68295 37.4134 0
      vertex 3.18295 38.5032 0
    endloop
  endfacet
  facet normal -0.951057 0.309017 0
    outer loop
      vertex 6.53705 33.8866 0
      vertex 7.11 35.65 6
      vertex 7.11 35.65 0
    endloop
  endfacet
  facet normal -0.951057 0.309017 0
    outer loop
      vertex 7.11 35.65 6
      vertex 6.53705 33.8866 0
      vertex 6.53705 33.8866 6
    endloop
  endfacet
  facet normal 0.951056 -0.309017 0
    outer loop
      vertex 1.11 35.65 6
      vertex 1.68295 37.4134 0
      vertex 1.68295 37.4134 6
    endloop
  endfacet
  facet normal 0.951056 -0.309017 0
    outer loop
      vertex 1.68295 37.4134 0
      vertex 1.11 35.65 6
      vertex 1.11 35.65 0
    endloop
  endfacet
  facet normal 0.587785 0.809017 -0
    outer loop
      vertex 3.18295 32.7968 0
      vertex 1.68295 33.8866 6
      vertex 3.18295 32.7968 6
    endloop
  endfacet
  facet normal 0.587785 0.809017 0
    outer loop
      vertex 1.68295 33.8866 6
      vertex 3.18295 32.7968 0
      vertex 1.68295 33.8866 0
    endloop
  endfacet
  facet normal -0.587785 0.809017 0
    outer loop
      vertex 6.53705 33.8866 0
      vertex 5.03705 32.7968 6
      vertex 6.53705 33.8866 6
    endloop
  endfacet
  facet normal -0.587785 0.809017 0
    outer loop
      vertex 5.03705 32.7968 6
      vertex 6.53705 33.8866 0
      vertex 5.03705 32.7968 0
    endloop
  endfacet
  facet normal 0.951057 0.309016 0
    outer loop
      vertex 1.68295 33.8866 6
      vertex 1.11 35.65 0
      vertex 1.11 35.65 6
    endloop
  endfacet
  facet normal 0.951057 0.309016 0
    outer loop
      vertex 1.11 35.65 0
      vertex 1.68295 33.8866 6
      vertex 1.68295 33.8866 0
    endloop
  endfacet
  facet normal 0 1 -0
    outer loop
      vertex 5.03705 32.7968 0
      vertex 3.18295 32.7968 6
      vertex 5.03705 32.7968 6
    endloop
  endfacet
  facet normal 0 1 0
    outer loop
      vertex 3.18295 32.7968 6
      vertex 5.03705 32.7968 0
      vertex 3.18295 32.7968 0
    endloop
  endfacet
  facet normal -0.951056 -0.309019 0
    outer loop
      vertex 38.65 35.65 0
      vertex 38.077 37.4134 6
      vertex 38.077 37.4134 0
    endloop
  endfacet
  facet normal -0.951056 -0.309019 0
    outer loop
      vertex 38.077 37.4134 6
      vertex 38.65 35.65 0
      vertex 38.65 35.65 6
    endloop
  endfacet
  facet normal 0 -1 0
    outer loop
      vertex 34.7229 38.5032 0
      vertex 36.577 38.5032 6
      vertex 34.7229 38.5032 6
    endloop
  endfacet
  facet normal 0 -1 -0
    outer loop
      vertex 36.577 38.5032 6
      vertex 34.7229 38.5032 0
      vertex 36.577 38.5032 0
    endloop
  endfacet
  facet normal -0.587786 -0.809016 0
    outer loop
      vertex 36.577 38.5032 0
      vertex 38.077 37.4134 6
      vertex 36.577 38.5032 6
    endloop
  endfacet
  facet normal -0.587786 -0.809016 -0
    outer loop
      vertex 38.077 37.4134 6
      vertex 36.577 38.5032 0
      vertex 38.077 37.4134 0
    endloop
  endfacet
  facet normal 0.587786 -0.809016 0
    outer loop
      vertex 33.2229 37.4134 0
      vertex 34.7229 38.5032 6
      vertex 33.2229 37.4134 6
    endloop
  endfacet
  facet normal 0.587786 -0.809016 0
    outer loop
      vertex 34.7229 38.5032 6
      vertex 33.2229 37.4134 0
      vertex 34.7229 38.5032 0
    endloop
  endfacet
  facet normal 0.951057 -0.309016 0
    outer loop
      vertex 32.65 35.65 6
      vertex 33.2229 37.4134 0
      vertex 33.2229 37.4134 6
    endloop
  endfacet
  facet normal 0.951057 -0.309016 0
    outer loop
      vertex 33.2229 37.4134 0
      vertex 32.65 35.65 6
      vertex 32.65 35.65 0
    endloop
  endfacet
  facet normal 0.587785 0.809017 -0
    outer loop
      vertex 34.7229 32.7968 0
      vertex 33.2229 33.8866 6
      vertex 34.7229 32.7968 6
    endloop
  endfacet
  facet normal 0.587785 0.809017 0
    outer loop
      vertex 33.2229 33.8866 6
      vertex 34.7229 32.7968 0
      vertex 33.2229 33.8866 0
    endloop
  endfacet
  facet normal -0.587785 0.809017 0
    outer loop
      vertex 38.077 33.8866 0
      vertex 36.577 32.7968 6
      vertex 38.077 33.8866 6
    endloop
  endfacet
  facet normal -0.587785 0.809017 0
    outer loop
      vertex 36.577 32.7968 6
      vertex 38.077 33.8866 0
      vertex 36.577 32.7968 0
    endloop
  endfacet
  facet normal -0.951056 0.309018 0
    outer loop
      vertex 38.077 33.8866 0
      vertex 38.65 35.65 6
      vertex 38.65 35.65 0
    endloop
  endfacet
  facet normal -0.951056 0.309018 0
    outer loop
      vertex 38.65 35.65 6
      vertex 38.077 33.8866 0
      vertex 38.077 33.8866 6
    endloop
  endfacet
  facet normal 0.951057 0.309014 0
    outer loop
      vertex 33.2229 33.8866 6
      vertex 32.65 35.65 0
      vertex 32.65 35.65 6
    endloop
  endfacet
  facet normal 0.951057 0.309014 0
    outer loop
      vertex 32.65 35.65 0
      vertex 33.2229 33.8866 6
      vertex 33.2229 33.8866 0
    endloop
  endfacet
  facet normal 0 1 -0
    outer loop
      vertex 36.577 32.7968 0
      vertex 34.7229 32.7968 6
      vertex 36.577 32.7968 6
    endloop
  endfacet
  facet normal 0 1 0
    outer loop
      vertex 34.7229 32.7968 6
      vertex 36.577 32.7968 0
      vertex 34.7229 32.7968 0
    endloop
  endfacet
  facet normal -0.951056 -0.309019 0
    outer loop
      vertex 38.65 4.11 0
      vertex 38.077 5.87335 6
      vertex 38.077 5.87335 0
    endloop
  endfacet
  facet normal -0.951056 -0.309019 0
    outer loop
      vertex 38.077 5.87335 6
      vertex 38.65 4.11 0
      vertex 38.65 4.11 6
    endloop
  endfacet
  facet normal -0.587785 0.809017 0
    outer loop
      vertex 38.077 2.34664 0
      vertex 36.577 1.25683 6
      vertex 38.077 2.34664 6
    endloop
  endfacet
  facet normal -0.587785 0.809017 0
    outer loop
      vertex 36.577 1.25683 6
      vertex 38.077 2.34664 0
      vertex 36.577 1.25683 0
    endloop
  endfacet
  facet normal 0 -1 0
    outer loop
      vertex 34.7229 6.96317 0
      vertex 36.577 6.96317 6
      vertex 34.7229 6.96317 6
    endloop
  endfacet
  facet normal 0 -1 -0
    outer loop
      vertex 36.577 6.96317 6
      vertex 34.7229 6.96317 0
      vertex 36.577 6.96317 0
    endloop
  endfacet
  facet normal -0.587785 -0.809017 0
    outer loop
      vertex 36.577 6.96317 0
      vertex 38.077 5.87335 6
      vertex 36.577 6.96317 6
    endloop
  endfacet
  facet normal -0.587785 -0.809017 -0
    outer loop
      vertex 38.077 5.87335 6
      vertex 36.577 6.96317 0
      vertex 38.077 5.87335 0
    endloop
  endfacet
  facet normal 0.587785 -0.809017 0
    outer loop
      vertex 33.2229 5.87335 0
      vertex 34.7229 6.96317 6
      vertex 33.2229 5.87335 6
    endloop
  endfacet
  facet normal 0.587785 -0.809017 0
    outer loop
      vertex 34.7229 6.96317 6
      vertex 33.2229 5.87335 0
      vertex 34.7229 6.96317 0
    endloop
  endfacet
  facet normal -0.951056 0.309019 0
    outer loop
      vertex 38.077 2.34664 0
      vertex 38.65 4.11 6
      vertex 38.65 4.11 0
    endloop
  endfacet
  facet normal -0.951056 0.309019 0
    outer loop
      vertex 38.65 4.11 6
      vertex 38.077 2.34664 0
      vertex 38.077 2.34664 6
    endloop
  endfacet
  facet normal 0.951057 -0.309015 0
    outer loop
      vertex 32.65 4.11 6
      vertex 33.2229 5.87335 0
      vertex 33.2229 5.87335 6
    endloop
  endfacet
  facet normal 0.951057 -0.309015 0
    outer loop
      vertex 33.2229 5.87335 0
      vertex 32.65 4.11 6
      vertex 32.65 4.11 0
    endloop
  endfacet
  facet normal 0.587785 0.809017 -0
    outer loop
      vertex 34.7229 1.25683 0
      vertex 33.2229 2.34664 6
      vertex 34.7229 1.25683 6
    endloop
  endfacet
  facet normal 0.587785 0.809017 0
    outer loop
      vertex 33.2229 2.34664 6
      vertex 34.7229 1.25683 0
      vertex 33.2229 2.34664 0
    endloop
  endfacet
  facet normal 0.951057 0.309015 0
    outer loop
      vertex 33.2229 2.34664 6
      vertex 32.65 4.11 0
      vertex 32.65 4.11 6
    endloop
  endfacet
  facet normal 0.951057 0.309015 0
    outer loop
      vertex 32.65 4.11 0
      vertex 33.2229 2.34664 6
      vertex 33.2229 2.34664 0
    endloop
  endfacet
  facet normal 0 1 -0
    outer loop
      vertex 36.577 1.25683 0
      vertex 34.7229 1.25683 6
      vertex 36.577 1.25683 6
    endloop
  endfacet
  facet normal 0 1 0
    outer loop
      vertex 34.7229 1.25683 6
      vertex 36.577 1.25683 0
      vertex 34.7229 1.25683 0
    endloop
  endfacet
  facet normal -0.92388 -0.382683 0
    outer loop
      vertex 17.14 30.06 0
      vertex 16.4019 31.8419 6
      vertex 16.4019 31.8419 0
    endloop
  endfacet
  facet normal -0.92388 -0.382683 0
    outer loop
      vertex 16.4019 31.8419 6
      vertex 17.14 30.06 0
      vertex 17.14 30.06 6
    endloop
  endfacet
  facet normal 0.923879 -0.382684 0
    outer loop
      vertex 12.1 30.06 6
      vertex 12.8381 31.8419 0
      vertex 12.8381 31.8419 6
    endloop
  endfacet
  facet normal 0.923879 -0.382684 0
    outer loop
      vertex 12.8381 31.8419 0
      vertex 12.1 30.06 6
      vertex 12.1 30.06 0
    endloop
  endfacet
  facet normal -0.382685 -0.923879 0
    outer loop
      vertex 14.62 32.58 0
      vertex 16.4019 31.8419 6
      vertex 14.62 32.58 6
    endloop
  endfacet
  facet normal -0.382685 -0.923879 -0
    outer loop
      vertex 16.4019 31.8419 6
      vertex 14.62 32.58 0
      vertex 16.4019 31.8419 0
    endloop
  endfacet
  facet normal 0.382685 -0.923879 0
    outer loop
      vertex 12.8381 31.8419 0
      vertex 14.62 32.58 6
      vertex 12.8381 31.8419 6
    endloop
  endfacet
  facet normal 0.382685 -0.923879 0
    outer loop
      vertex 14.62 32.58 6
      vertex 12.8381 31.8419 0
      vertex 14.62 32.58 0
    endloop
  endfacet
  facet normal -0.382683 0.92388 0
    outer loop
      vertex 16.4019 28.2781 0
      vertex 14.62 27.54 6
      vertex 16.4019 28.2781 6
    endloop
  endfacet
  facet normal -0.382683 0.92388 0
    outer loop
      vertex 14.62 27.54 6
      vertex 16.4019 28.2781 0
      vertex 14.62 27.54 0
    endloop
  endfacet
  facet normal -0.92388 0.382683 0
    outer loop
      vertex 16.4019 28.2781 0
      vertex 17.14 30.06 6
      vertex 17.14 30.06 0
    endloop
  endfacet
  facet normal -0.92388 0.382683 0
    outer loop
      vertex 17.14 30.06 6
      vertex 16.4019 28.2781 0
      vertex 16.4019 28.2781 6
    endloop
  endfacet
  facet normal 0.382683 0.92388 -0
    outer loop
      vertex 14.62 27.54 0
      vertex 12.8381 28.2781 6
      vertex 14.62 27.54 6
    endloop
  endfacet
  facet normal 0.382683 0.92388 0
    outer loop
      vertex 12.8381 28.2781 6
      vertex 14.62 27.54 0
      vertex 12.8381 28.2781 0
    endloop
  endfacet
  facet normal 0.923879 0.382684 0
    outer loop
      vertex 12.8381 28.2781 6
      vertex 12.1 30.06 0
      vertex 12.1 30.06 6
    endloop
  endfacet
  facet normal 0.923879 0.382684 0
    outer loop
      vertex 12.1 30.06 0
      vertex 12.8381 28.2781 6
      vertex 12.8381 28.2781 0
    endloop
  endfacet
  facet normal -0.923879 -0.382684 0
    outer loop
      vertex 27.2 30.06 0
      vertex 26.4619 31.8419 6
      vertex 26.4619 31.8419 0
    endloop
  endfacet
  facet normal -0.923879 -0.382684 0
    outer loop
      vertex 26.4619 31.8419 6
      vertex 27.2 30.06 0
      vertex 27.2 30.06 6
    endloop
  endfacet
  facet normal 0.382685 -0.923879 0
    outer loop
      vertex 22.8981 31.8419 0
      vertex 24.68 32.58 6
      vertex 22.8981 31.8419 6
    endloop
  endfacet
  facet normal 0.382685 -0.923879 0
    outer loop
      vertex 24.68 32.58 6
      vertex 22.8981 31.8419 0
      vertex 24.68 32.58 0
    endloop
  endfacet
  facet normal -0.382685 -0.923879 0
    outer loop
      vertex 24.68 32.58 0
      vertex 26.4619 31.8419 6
      vertex 24.68 32.58 6
    endloop
  endfacet
  facet normal -0.382685 -0.923879 -0
    outer loop
      vertex 26.4619 31.8419 6
      vertex 24.68 32.58 0
      vertex 26.4619 31.8419 0
    endloop
  endfacet
  facet normal 0.92388 -0.382683 0
    outer loop
      vertex 22.16 30.06 6
      vertex 22.8981 31.8419 0
      vertex 22.8981 31.8419 6
    endloop
  endfacet
  facet normal 0.92388 -0.382683 0
    outer loop
      vertex 22.8981 31.8419 0
      vertex 22.16 30.06 6
      vertex 22.16 30.06 0
    endloop
  endfacet
  facet normal -0.923879 0.382684 0
    outer loop
      vertex 26.4619 28.2781 0
      vertex 27.2 30.06 6
      vertex 27.2 30.06 0
    endloop
  endfacet
  facet normal -0.923879 0.382684 0
    outer loop
      vertex 27.2 30.06 6
      vertex 26.4619 28.2781 0
      vertex 26.4619 28.2781 6
    endloop
  endfacet
  facet normal 0.382683 0.92388 -0
    outer loop
      vertex 24.68 27.54 0
      vertex 22.8981 28.2781 6
      vertex 24.68 27.54 6
    endloop
  endfacet
  facet normal 0.382683 0.92388 0
    outer loop
      vertex 22.8981 28.2781 6
      vertex 24.68 27.54 0
      vertex 22.8981 28.2781 0
    endloop
  endfacet
  facet normal 0.92388 0.382683 0
    outer loop
      vertex 22.8981 28.2781 6
      vertex 22.16 30.06 0
      vertex 22.16 30.06 6
    endloop
  endfacet
  facet normal 0.92388 0.382683 0
    outer loop
      vertex 22.16 30.06 0
      vertex 22.8981 28.2781 6
      vertex 22.8981 28.2781 0
    endloop
  endfacet
  facet normal -0.382683 0.92388 0
    outer loop
      vertex 26.4619 28.2781 0
      vertex 24.68 27.54 6
      vertex 26.4619 28.2781 6
    endloop
  endfacet
  facet normal -0.382683 0.92388 0
    outer loop
      vertex 24.68 27.54 6
      vertex 26.4619 28.2781 0
      vertex 24.68 27.54 0
    endloop
  endfacet
  facet normal 1 -0 0
    outer loop
      vertex 37.7279 29.1055 6
      vertex 37.7279 31.0145 0
      vertex 37.7279 31.0145 6
    endloop
  endfacet
  facet normal 1 0 0
    outer loop
      vertex 37.7279 31.0145 0
      vertex 37.7279 29.1055 6
      vertex 37.7279 29.1055 0
    endloop
  endfacet
  facet normal -0.900969 -0.433884 0
    outer loop
      vertex 57.46 30.06 0
      vertex 56.6317 31.78 6
      vertex 56.6317 31.78 0
    endloop
  endfacet
  facet normal -0.900969 -0.433884 0
    outer loop
      vertex 56.6317 31.78 6
      vertex 57.46 30.06 0
      vertex 57.46 30.06 6
    endloop
  endfacet
  facet normal 0.62349 0.781831 -0
    outer loop
      vertex 39.2205 27.9152 0
      vertex 37.7279 29.1055 6
      vertex 39.2205 27.9152 6
    endloop
  endfacet
  facet normal 0.62349 0.781831 0
    outer loop
      vertex 37.7279 29.1055 6
      vertex 39.2205 27.9152 0
      vertex 37.7279 29.1055 0
    endloop
  endfacet
  facet normal 0.62349 -0.781831 0
    outer loop
      vertex 37.7279 31.0145 0
      vertex 39.2205 32.2048 6
      vertex 37.7279 31.0145 6
    endloop
  endfacet
  facet normal 0.62349 -0.781831 0
    outer loop
      vertex 39.2205 32.2048 6
      vertex 37.7279 31.0145 0
      vertex 39.2205 32.2048 0
    endloop
  endfacet
  facet normal 0 1 -0
    outer loop
      vertex 54.7705 27.9152 0
      vertex 39.2205 27.9152 6
      vertex 54.7705 27.9152 6
    endloop
  endfacet
  facet normal 0 1 0
    outer loop
      vertex 39.2205 27.9152 6
      vertex 54.7705 27.9152 0
      vertex 39.2205 27.9152 0
    endloop
  endfacet
  facet normal -0.222521 0.974928 0
    outer loop
      vertex 56.6317 28.34 0
      vertex 54.7705 27.9152 6
      vertex 56.6317 28.34 6
    endloop
  endfacet
  facet normal -0.222521 0.974928 0
    outer loop
      vertex 54.7705 27.9152 6
      vertex 56.6317 28.34 0
      vertex 54.7705 27.9152 0
    endloop
  endfacet
  facet normal -0.900969 0.433884 0
    outer loop
      vertex 56.6317 28.34 0
      vertex 57.46 30.06 6
      vertex 57.46 30.06 0
    endloop
  endfacet
  facet normal -0.900969 0.433884 0
    outer loop
      vertex 57.46 30.06 6
      vertex 56.6317 28.34 0
      vertex 56.6317 28.34 6
    endloop
  endfacet
  facet normal -0.222521 -0.974928 0
    outer loop
      vertex 54.7705 32.2048 0
      vertex 56.6317 31.78 6
      vertex 54.7705 32.2048 6
    endloop
  endfacet
  facet normal -0.222521 -0.974928 -0
    outer loop
      vertex 56.6317 31.78 6
      vertex 54.7705 32.2048 0
      vertex 56.6317 31.78 0
    endloop
  endfacet
  facet normal 0 -1 0
    outer loop
      vertex 39.2205 32.2048 0
      vertex 54.7705 32.2048 6
      vertex 39.2205 32.2048 6
    endloop
  endfacet
  facet normal 0 -1 -0
    outer loop
      vertex 54.7705 32.2048 6
      vertex 39.2205 32.2048 0
      vertex 54.7705 32.2048 0
    endloop
  endfacet
  facet normal 1 -0 0
    outer loop
      vertex 7 11 6
      vertex 7 21 0
      vertex 7 21 6
    endloop
  endfacet
  facet normal 1 0 0
    outer loop
      vertex 7 21 0
      vertex 7 11 6
      vertex 7 11 0
    endloop
  endfacet
  facet normal -1 0 0
    outer loop
      vertex 32 11 0
      vertex 32 21 6
      vertex 32 21 0
    endloop
  endfacet
  facet normal -1 -0 0
    outer loop
      vertex 32 21 6
      vertex 32 11 0
      vertex 32 11 6
    endloop
  endfacet
  facet normal 0 -1 0
    outer loop
      vertex 7 21 0
      vertex 32 21 6
      vertex 7 21 6
    endloop
  endfacet
  facet normal 0 -1 -0
    outer loop
      vertex 32 21 6
      vertex 7 21 0
      vertex 32 21 0
    endloop
  endfacet
  facet normal 0 1 -0
    outer loop
      vertex 32 11 0
      vertex 7 11 6
      vertex 32 11 6
    endloop
  endfacet
  facet normal 0 1 0
    outer loop
      vertex 7 11 6
      vertex 32 11 0
      vertex 7 11 0
    endloop
  endfacet
endsolid OpenSCAD_Model
