solid OpenSCAD_Model
  facet normal -1 0 0
    outer loop
      vertex -64 -43 0
      vertex -64 43 10
      vertex -64 43 0
    endloop
  endfacet
  facet normal -1 -0 0
    outer loop
      vertex -64 43 10
      vertex -64 -43 0
      vertex -64 -43 10
    endloop
  endfacet
  facet normal 0 0 1
    outer loop
      vertex 64 43 10
      vertex 59.5 41.25 10
      vertex 64 -43 10
    endloop
  endfacet
  facet normal 0 0 1
    outer loop
      vertex 64 43 10
      vertex -59.5 41.25 10
      vertex 59.5 41.25 10
    endloop
  endfacet
  facet normal 0 0 1
    outer loop
      vertex -59.5 41.25 10
      vertex -64 43 10
      vertex -59.5 -41.25 10
    endloop
  endfacet
  facet normal -0 0 1
    outer loop
      vertex -64 43 10
      vertex -59.5 41.25 10
      vertex 64 43 10
    endloop
  endfacet
  facet normal -0 0 1
    outer loop
      vertex 59.5 -41.25 10
      vertex 64 -43 10
      vertex 59.5 41.25 10
    endloop
  endfacet
  facet normal -0 0 1
    outer loop
      vertex -59.5 -41.25 10
      vertex 64 -43 10
      vertex 59.5 -41.25 10
    endloop
  endfacet
  facet normal 0 0 1
    outer loop
      vertex -59.5 -41.25 10
      vertex -64 -43 10
      vertex 64 -43 10
    endloop
  endfacet
  facet normal 0 0 1
    outer loop
      vertex -64 -43 10
      vertex -59.5 -41.25 10
      vertex -64 43 10
    endloop
  endfacet
  facet normal 1 -0 0
    outer loop
      vertex 64 -43 10
      vertex 64 43 0
      vertex 64 43 10
    endloop
  endfacet
  facet normal 1 0 0
    outer loop
      vertex 64 43 0
      vertex 64 -43 10
      vertex 64 -43 0
    endloop
  endfacet
  facet normal 0 1 -0
    outer loop
      vertex 64 43 0
      vertex -64 43 10
      vertex 64 43 10
    endloop
  endfacet
  facet normal 0 1 0
    outer loop
      vertex -64 43 10
      vertex 64 43 0
      vertex -64 43 0
    endloop
  endfacet
  facet normal 0 0 -1
    outer loop
      vertex 64 -43 0
      vertex 44.5 -26.25 0
      vertex 64 43 0
    endloop
  endfacet
  facet normal 0 0 -1
    outer loop
      vertex 64 -43 0
      vertex -44.5 -26.25 0
      vertex 44.5 -26.25 0
    endloop
  endfacet
  facet normal -0 0 -1
    outer loop
      vertex -44.5 -26.25 0
      vertex -64 -43 0
      vertex -44.5 26.25 0
    endloop
  endfacet
  facet normal 0 0 -1
    outer loop
      vertex -64 -43 0
      vertex -44.5 -26.25 0
      vertex 64 -43 0
    endloop
  endfacet
  facet normal 0 0 -1
    outer loop
      vertex 44.5 26.25 0
      vertex 64 43 0
      vertex 44.5 -26.25 0
    endloop
  endfacet
  facet normal 0 0 -1
    outer loop
      vertex -44.5 26.25 0
      vertex 64 43 0
      vertex 44.5 26.25 0
    endloop
  endfacet
  facet normal 0 0 -1
    outer loop
      vertex -44.5 26.25 0
      vertex -64 43 0
      vertex 64 43 0
    endloop
  endfacet
  facet normal 0 0 -1
    outer loop
      vertex -64 43 0
      vertex -44.5 26.25 0
      vertex -64 -43 0
    endloop
  endfacet
  facet normal 0 -1 0
    outer loop
      vertex -64 -43 0
      vertex 64 -43 10
      vertex -64 -43 10
    endloop
  endfacet
  facet normal 0 -1 -0
    outer loop
      vertex 64 -43 10
      vertex -64 -43 0
      vertex 64 -43 0
    endloop
  endfacet
  facet normal 1 -0 0
    outer loop
      vertex -59.5 -41.25 10
      vertex -59.5 41.25 2
      vertex -59.5 41.25 10
    endloop
  endfacet
  facet normal 1 0 0
    outer loop
      vertex -59.5 41.25 2
      vertex -59.5 -41.25 10
      vertex -59.5 -41.25 2
    endloop
  endfacet
  facet normal -1 0 0
    outer loop
      vertex 59.5 -41.25 2
      vertex 59.5 41.25 10
      vertex 59.5 41.25 2
    endloop
  endfacet
  facet normal -1 -0 0
    outer loop
      vertex 59.5 41.25 10
      vertex 59.5 -41.25 2
      vertex 59.5 -41.25 10
    endloop
  endfacet
  facet normal 0 -1 0
    outer loop
      vertex -59.5 41.25 2
      vertex 59.5 41.25 10
      vertex -59.5 41.25 10
    endloop
  endfacet
  facet normal 0 -1 -0
    outer loop
      vertex 59.5 41.25 10
      vertex -59.5 41.25 2
      vertex 59.5 41.25 2
    endloop
  endfacet
  facet normal 0 0 1
    outer loop
      vertex 59.5 41.25 2
      vertex 44.5 26.25 2
      vertex 59.5 -41.25 2
    endloop
  endfacet
  facet normal 0 0 1
    outer loop
      vertex 59.5 41.25 2
      vertex -44.5 26.25 2
      vertex 44.5 26.25 2
    endloop
  endfacet
  facet normal 0 0 1
    outer loop
      vertex -44.5 26.25 2
      vertex -59.5 41.25 2
      vertex -44.5 -26.25 2
    endloop
  endfacet
  facet normal -0 0 1
    outer loop
      vertex -59.5 41.25 2
      vertex -44.5 26.25 2
      vertex 59.5 41.25 2
    endloop
  endfacet
  facet normal -0 0 1
    outer loop
      vertex 44.5 -26.25 2
      vertex 59.5 -41.25 2
      vertex 44.5 26.25 2
    endloop
  endfacet
  facet normal -0 0 1
    outer loop
      vertex -44.5 -26.25 2
      vertex 59.5 -41.25 2
      vertex 44.5 -26.25 2
    endloop
  endfacet
  facet normal 0 0 1
    outer loop
      vertex -44.5 -26.25 2
      vertex -59.5 -41.25 2
      vertex 59.5 -41.25 2
    endloop
  endfacet
  facet normal 0 0 1
    outer loop
      vertex -59.5 -41.25 2
      vertex -44.5 -26.25 2
      vertex -59.5 41.25 2
    endloop
  endfacet
  facet normal 0 1 -0
    outer loop
      vertex 59.5 -41.25 2
      vertex -59.5 -41.25 10
      vertex 59.5 -41.25 10
    endloop
  endfacet
  facet normal 0 1 0
    outer loop
      vertex -59.5 -41.25 10
      vertex 59.5 -41.25 2
      vertex -59.5 -41.25 2
    endloop
  endfacet
  facet normal 1 -0 0
    outer loop
      vertex -44.5 -26.25 2
      vertex -44.5 26.25 0
      vertex -44.5 26.25 2
    endloop
  endfacet
  facet normal 1 0 0
    outer loop
      vertex -44.5 26.25 0
      vertex -44.5 -26.25 2
      vertex -44.5 -26.25 0
    endloop
  endfacet
  facet normal -1 0 0
    outer loop
      vertex 44.5 -26.25 0
      vertex 44.5 26.25 2
      vertex 44.5 26.25 0
    endloop
  endfacet
  facet normal -1 -0 0
    outer loop
      vertex 44.5 26.25 2
      vertex 44.5 -26.25 0
      vertex 44.5 -26.25 2
    endloop
  endfacet
  facet normal 0 1 -0
    outer loop
      vertex 44.5 -26.25 0
      vertex -44.5 -26.25 2
      vertex 44.5 -26.25 2
    endloop
  endfacet
  facet normal 0 1 0
    outer loop
      vertex -44.5 -26.25 2
      vertex 44.5 -26.25 0
      vertex -44.5 -26.25 0
    endloop
  endfacet
  facet normal 0 -1 0
    outer loop
      vertex -44.5 26.25 0
      vertex 44.5 26.25 2
      vertex -44.5 26.25 2
    endloop
  endfacet
  facet normal 0 -1 -0
    outer loop
      vertex 44.5 26.25 2
      vertex -44.5 26.25 0
      vertex 44.5 26.25 0
    endloop
  endfacet
endsolid OpenSCAD_Model
